:SAMPLES-PER-SECOND 30
:FULLY-SPECIFIED
:DEGREES
416
root  89.5424 39.2583 5.04303 -178.262 -2.61627 176.693
RightUpLeg  -2.8631 -15.5266 -5.00699
RightLeg  16.3774 -35.3565 -1.68224
RightFoot  -5.48615 0.747264 -15.2261
RightToes  -3.0268e-009 0 -3.6325e-017
Spine  5.89974 1.69538 3.57071
Spine1  4.05372 1.80124 1.13443
HEad  -8.17236 11.4887 -12.2622
LeftShoulder1  -1.03589 5.99463 -35.3332
LeftArm  -5.31048 5.76551 -38.4597
LeftForeArm  24.7459 -24.9377 -4.03155
LeftHand  0.0843308 11.2297 2.54059
RightShoulder  -1.07556 -6.42102 30.2444
RightArm  22.6602 -6.69846 40.8718
RightForeArm  9.9212 33.3951 6.85336
RightHand  -0.327538 4.27813 -4.21112
LeftUpLeg  -11.1534 8.40681 -1.68681
LeftLeg  4.13674 35.8394 -3.07055
LeftFoot  -3.71898 -0.135615 2.34653
LeftToes  2.52475e-009 -1.26109e-010 3.16044e-011
417
root  89.7298 39.2628 4.95489 -177.939 -8.73184 176.3
RightUpLeg  -2.22785 -16.2241 -5.38283
RightLeg  17.3144 -40.0863 -2.52159
RightFoot  -5.35669 0.778938 -15.4837
RightToes  -3.0268e-009 0 -3.6325e-017
Spine  5.36079 1.72878 3.31391
Spine1  4.5143 2.24788 -0.622388
HEad  -6.69749 8.55143 -9.79051
LeftShoulder1  -0.837678 5.62739 -33.3021
LeftArm  -5.57893 5.442 -40.3125
LeftForeArm  22.5776 -24.5984 -4.07456
LeftHand  0.311395 10.7505 8.02972
RightShoulder  -1.36184 -6.9848 32.6412
RightArm  23.5864 -4.9513 41.0692
RightForeArm  9.91532 35.1429 7.32609
RightHand  -0.328454 4.22341 -4.25038
LeftUpLeg  -10.0146 8.24305 -1.72486
LeftLeg  2.57927 44.8271 -4.53179
LeftFoot  -3.53846 -0.235785 3.79591
LeftToes  2.52475e-009 -1.26109e-010 3.16044e-011
418
root  89.8114 39.2291 4.68541 -177.932 -13.9255 176.91
RightUpLeg  -1.17357 -17.2904 -4.87081
RightLeg  18.136 -43.1525 -3.20188
RightFoot  -5.46712 0.71694 -14.5356
RightToes  -3.0268e-009 0 -3.6325e-017
Spine  4.53426 2.06084 2.81634
Spine1  4.86187 2.54073 -0.419951
HEad  -5.12803 5.41178 -8.01233
LeftShoulder1  -0.802884 5.53018 -33.4526
LeftArm  -4.06137 5.65642 -40.7977
LeftForeArm  14.1996 -24.3999 -4.47733
LeftHand  1.8187 13.2962 26.0913
RightShoulder  -1.34254 -6.94648 32.4697
RightArm  23.6852 -4.40425 42.3724
RightForeArm  11.197 36.6447 7.677
RightHand  -0.29493 4.953 -3.60319
LeftUpLeg  -9.08813 11.3449 -0.617496
LeftLeg  3.50801 50.2745 -5.14105
LeftFoot  -4.52952 -0.251661 4.67276
LeftToes  2.52475e-009 -1.26109e-010 3.16044e-011
419
root  89.8527 39.2291 4.3519 -177.995 -18.2423 176.849
RightUpLeg  0.287541 -19.3879 -5.29273
RightLeg  18.417 -43.3756 -3.35583
RightFoot  -6.09779 0.521468 -12.2344
RightToes  -3.0268e-009 0 -3.6325e-017
Spine  3.8174 2.84548 0.253242
Spine1  5.30096 2.91643 1.42457
HEad  -4.00974 3.55933 -7.85431
LeftShoulder1  -0.873352 5.62191 -35.0214
LeftArm  -2.41175 5.27967 -40.1076
LeftForeArm  22.9752 -23.7733 -3.8831
LeftHand  0.0177559 9.59475 1.72593
RightShoulder  -1.20481 -6.69701 31.2085
RightArm  23.3894 -4.3822 43.7773
RightForeArm  12.2774 38.6055 8.18597
RightHand  -0.28476 4.93055 -3.49706
LeftUpLeg  -7.68207 11.3949 -0.234465
LeftLeg  2.88827 55.1719 -6.15205
LeftFoot  -4.49095 -0.259306 4.79457
LeftToes  2.52475e-009 -1.26109e-010 3.16044e-011
420
root  89.6844 39.2197 3.99928 -178.061 -23.1785 176.802
RightUpLeg  1.35985 -19.3779 -5.23649
RightLeg  20.3789 -44.9273 -6.21793
RightFoot  -4.87792 0.68656 -12.843
RightToes  -3.0268e-009 0 -3.6325e-017
Spine  3.77593 2.71124 -0.17184
Spine1  4.65654 2.92972 1.0003
HEad  -2.13829 -0.0417267 -5.49017
LeftShoulder1  -0.990664 5.86407 -35.7611
LeftArm  -0.763827 6.24843 -39.3349
LeftForeArm  22.2032 -24.3673 -4.034
LeftHand  0.118021 11.1618 3.49024
RightShoulder  -1.07881 -6.39637 30.7571
RightArm  23.031 -4.47018 44.922
RightForeArm  12.6403 39.7115 8.50671
RightHand  -0.325113 5.45002 -3.79365
LeftUpLeg  -6.49931 10.6505 -0.595665
LeftLeg  1.06306 53.128 -7.71562
LeftFoot  -4.05549 -0.318485 5.31594
LeftToes  2.52475e-009 -1.26109e-010 3.16044e-011
421
root  89.3724 39.2161 3.66293 -178.23 -28.6357 177.62
RightUpLeg  0.792408 -13.5758 -2.53995
RightLeg  25.1605 -50.0899 -14.0669
RightFoot  -1.60573 0.935225 -10.8462
RightToes  -3.0268e-009 0 -3.6325e-017
Spine  2.68707 2.36302 0.946943
Spine1  5.01496 2.84136 0.463398
HEad  -2.04917 -2.54293 -4.93039
LeftShoulder1  -1.07624 6.07165 -35.6812
LeftArm  1.35987 6.24467 -39.7182
LeftForeArm  21.9326 -23.5268 -3.95814
LeftHand  0.0883339 12.8483 2.36271
RightShoulder  -1.07469 -6.39454 30.6347
RightArm  22.5613 -4.43175 45.4027
RightForeArm  13.0571 40.7702 8.8188
RightHand  -0.340581 5.25422 -4.01977
LeftUpLeg  -6.93656 10.7933 -1.03329
LeftLeg  2.26759 47.1046 -6.07176
LeftFoot  -3.43966 -0.552039 8.32747
LeftToes  2.52475e-009 -1.26109e-010 3.16044e-011
422
root  89.0192 39.0948 3.31834 -178.738 -34.0269 178.005
RightUpLeg  4.25708 -21.5494 -6.18283
RightLeg  23.1849 -42.2038 -6.49653
RightFoot  -4.36632 0.454986 -8.03518
RightToes  -3.0268e-009 0 -3.6325e-017
Spine  1.9639 2.24273 0.763499
Spine1  5.54132 2.76166 0.519713
HEad  -2.06626 -6.38108 -4.44176
LeftShoulder1  -1.09902 6.08916 -36.2638
LeftArm  2.71001 5.98333 -39.522
LeftForeArm  20.9001 -21.6375 -4.04435
LeftHand  0.0564311 13.1443 1.83464
RightShoulder  -1.0835 -6.42641 30.5327
RightArm  22.3361 -4.62679 45.1793
RightForeArm  12.6454 41.2781 9.01226
RightHand  -0.494474 5.18551 -5.72043
LeftUpLeg  -7.84761 13.8479 -2.05025
LeftLeg  6.70563 38.8551 -2.18476
LeftFoot  -4.25455 -0.579963 9.74755
LeftToes  2.52475e-009 -1.26109e-010 3.16044e-011
